<mxfile host="app.diagrams.net" modified="2023-06-15T09:10:03.051Z" agent="Mozilla/5.0 (X11; Linux x86_64) AppleWebKit/537.36 (KHTML, like Gecko) Chrome/113.0.0.0 Safari/537.36" etag="fqyGtpQe1nb0tbJVuF-Q" version="21.4.0" type="device">
  <diagram id="C5RBs43oDa-KdzZeNtuy" name="Page-1">
    <mxGraphModel dx="875" dy="-681" grid="1" gridSize="10" guides="1" tooltips="1" connect="1" arrows="1" fold="1" page="1" pageScale="1" pageWidth="1654" pageHeight="1169" math="0" shadow="0">
      <root>
        <mxCell id="WIyWlLk6GJQsqaUBKTNV-0" />
        <mxCell id="WIyWlLk6GJQsqaUBKTNV-1" parent="WIyWlLk6GJQsqaUBKTNV-0" />
        <mxCell id="uUCPMOX3y8Ib5dSfwemb-44" style="edgeStyle=orthogonalEdgeStyle;rounded=0;orthogonalLoop=1;jettySize=auto;html=1;entryX=0.5;entryY=1;entryDx=0;entryDy=0;startSize=10;endSize=12;strokeWidth=3;" parent="WIyWlLk6GJQsqaUBKTNV-1" source="uUCPMOX3y8Ib5dSfwemb-0" target="uUCPMOX3y8Ib5dSfwemb-41" edge="1">
          <mxGeometry relative="1" as="geometry" />
        </mxCell>
        <mxCell id="uUCPMOX3y8Ib5dSfwemb-0" value="ImagePanelButton" style="swimlane;fontStyle=1;align=center;verticalAlign=top;childLayout=stackLayout;horizontal=1;startSize=26;horizontalStack=0;resizeParent=1;resizeLast=0;collapsible=1;marginBottom=0;rounded=0;shadow=0;strokeWidth=1;" parent="WIyWlLk6GJQsqaUBKTNV-1" vertex="1">
          <mxGeometry x="1215" y="2185.5" width="175" height="114" as="geometry">
            <mxRectangle x="230" y="140" width="160" height="26" as="alternateBounds" />
          </mxGeometry>
        </mxCell>
        <mxCell id="oUhqUqcZ6ZFia1W_-bfi-7" value="image" style="text;align=left;verticalAlign=top;spacingLeft=4;spacingRight=4;overflow=hidden;rotatable=0;points=[[0,0.5],[1,0.5]];portConstraint=eastwest;" parent="uUCPMOX3y8Ib5dSfwemb-0" vertex="1">
          <mxGeometry y="26" width="175" height="26" as="geometry" />
        </mxCell>
        <mxCell id="uUCPMOX3y8Ib5dSfwemb-1" value="button" style="text;align=left;verticalAlign=top;spacingLeft=4;spacingRight=4;overflow=hidden;rotatable=0;points=[[0,0.5],[1,0.5]];portConstraint=eastwest;" parent="uUCPMOX3y8Ib5dSfwemb-0" vertex="1">
          <mxGeometry y="52" width="175" height="26" as="geometry" />
        </mxCell>
        <mxCell id="uUCPMOX3y8Ib5dSfwemb-2" value="" style="line;strokeWidth=1;rotatable=0;dashed=0;labelPosition=right;align=left;verticalAlign=middle;spacingTop=0;spacingLeft=6;points=[];portConstraint=eastwest;" parent="uUCPMOX3y8Ib5dSfwemb-0" vertex="1">
          <mxGeometry y="78" width="175" height="10" as="geometry" />
        </mxCell>
        <mxCell id="uUCPMOX3y8Ib5dSfwemb-5" value="set_image(image)" style="text;align=left;verticalAlign=top;spacingLeft=4;spacingRight=4;overflow=hidden;rotatable=0;points=[[0,0.5],[1,0.5]];portConstraint=eastwest;" parent="uUCPMOX3y8Ib5dSfwemb-0" vertex="1">
          <mxGeometry y="88" width="175" height="26" as="geometry" />
        </mxCell>
        <mxCell id="uUCPMOX3y8Ib5dSfwemb-41" value="UIPanel" style="swimlane;fontStyle=1;align=center;verticalAlign=top;childLayout=stackLayout;horizontal=1;startSize=26;horizontalStack=0;resizeParent=1;resizeLast=0;collapsible=1;marginBottom=0;rounded=0;shadow=0;strokeWidth=1;" parent="WIyWlLk6GJQsqaUBKTNV-1" vertex="1">
          <mxGeometry x="1215" y="2070" width="175" height="60" as="geometry">
            <mxRectangle x="340" y="380" width="170" height="26" as="alternateBounds" />
          </mxGeometry>
        </mxCell>
        <mxCell id="uUCPMOX3y8Ib5dSfwemb-48" value="klasa z biblioteki Pygame GUI" style="text;align=left;verticalAlign=top;spacingLeft=4;spacingRight=4;overflow=hidden;rotatable=0;points=[[0,0.5],[1,0.5]];portConstraint=eastwest;fontStyle=2" parent="uUCPMOX3y8Ib5dSfwemb-41" vertex="1">
          <mxGeometry y="26" width="175" height="26" as="geometry" />
        </mxCell>
        <mxCell id="uUCPMOX3y8Ib5dSfwemb-49" value="Game" style="swimlane;fontStyle=1;align=center;verticalAlign=top;childLayout=stackLayout;horizontal=1;startSize=26;horizontalStack=0;resizeParent=1;resizeLast=0;collapsible=1;marginBottom=0;rounded=0;shadow=0;strokeWidth=1;" parent="WIyWlLk6GJQsqaUBKTNV-1" vertex="1">
          <mxGeometry x="60.07" y="1290" width="270" height="430" as="geometry">
            <mxRectangle x="230" y="140" width="160" height="26" as="alternateBounds" />
          </mxGeometry>
        </mxCell>
        <mxCell id="eL9mVTa_U1fSFRPkYWSZ-24" value="" style="childLayout=tableLayout;recursiveResize=0;shadow=0;fillColor=none;strokeColor=none;align=left;labelBorderColor=none;perimeterSpacing=0;strokeWidth=1;" parent="uUCPMOX3y8Ib5dSfwemb-49" vertex="1">
          <mxGeometry y="26" width="270" height="260" as="geometry" />
        </mxCell>
        <mxCell id="eL9mVTa_U1fSFRPkYWSZ-25" value="" style="shape=tableRow;horizontal=0;startSize=0;swimlaneHead=0;swimlaneBody=0;top=0;left=0;bottom=0;right=0;dropTarget=0;collapsible=0;recursiveResize=0;expand=0;fontStyle=0;fillColor=none;strokeColor=inherit;" parent="eL9mVTa_U1fSFRPkYWSZ-24" vertex="1">
          <mxGeometry width="270" height="26" as="geometry" />
        </mxCell>
        <mxCell id="eL9mVTa_U1fSFRPkYWSZ-26" value="game_size" style="connectable=0;recursiveResize=0;strokeColor=inherit;fillColor=none;align=left;whiteSpace=wrap;html=1;spacing=6;" parent="eL9mVTa_U1fSFRPkYWSZ-25" vertex="1">
          <mxGeometry width="135" height="26" as="geometry">
            <mxRectangle width="135" height="26" as="alternateBounds" />
          </mxGeometry>
        </mxCell>
        <mxCell id="eL9mVTa_U1fSFRPkYWSZ-27" value="frame_rate" style="connectable=0;recursiveResize=0;strokeColor=inherit;fillColor=none;align=left;whiteSpace=wrap;html=1;spacing=6;" parent="eL9mVTa_U1fSFRPkYWSZ-25" vertex="1">
          <mxGeometry x="135" width="135" height="26" as="geometry">
            <mxRectangle width="135" height="26" as="alternateBounds" />
          </mxGeometry>
        </mxCell>
        <mxCell id="eL9mVTa_U1fSFRPkYWSZ-29" style="shape=tableRow;horizontal=0;startSize=0;swimlaneHead=0;swimlaneBody=0;top=0;left=0;bottom=0;right=0;dropTarget=0;collapsible=0;recursiveResize=0;expand=0;fontStyle=0;fillColor=none;strokeColor=inherit;" parent="eL9mVTa_U1fSFRPkYWSZ-24" vertex="1">
          <mxGeometry y="26" width="270" height="26" as="geometry" />
        </mxCell>
        <mxCell id="eL9mVTa_U1fSFRPkYWSZ-30" value="game_width" style="connectable=0;recursiveResize=0;strokeColor=inherit;fillColor=none;align=left;whiteSpace=wrap;html=1;spacing=6;" parent="eL9mVTa_U1fSFRPkYWSZ-29" vertex="1">
          <mxGeometry width="135" height="26" as="geometry">
            <mxRectangle width="135" height="26" as="alternateBounds" />
          </mxGeometry>
        </mxCell>
        <mxCell id="eL9mVTa_U1fSFRPkYWSZ-31" value="running" style="connectable=0;recursiveResize=0;strokeColor=inherit;fillColor=none;align=left;whiteSpace=wrap;html=1;spacing=6;" parent="eL9mVTa_U1fSFRPkYWSZ-29" vertex="1">
          <mxGeometry x="135" width="135" height="26" as="geometry">
            <mxRectangle width="135" height="26" as="alternateBounds" />
          </mxGeometry>
        </mxCell>
        <mxCell id="eL9mVTa_U1fSFRPkYWSZ-33" style="shape=tableRow;horizontal=0;startSize=0;swimlaneHead=0;swimlaneBody=0;top=0;left=0;bottom=0;right=0;dropTarget=0;collapsible=0;recursiveResize=0;expand=0;fontStyle=0;fillColor=none;strokeColor=inherit;" parent="eL9mVTa_U1fSFRPkYWSZ-24" vertex="1">
          <mxGeometry y="52" width="270" height="26" as="geometry" />
        </mxCell>
        <mxCell id="eL9mVTa_U1fSFRPkYWSZ-34" value="game_height" style="connectable=0;recursiveResize=0;strokeColor=inherit;fillColor=none;align=left;whiteSpace=wrap;html=1;spacing=6;" parent="eL9mVTa_U1fSFRPkYWSZ-33" vertex="1">
          <mxGeometry width="135" height="26" as="geometry">
            <mxRectangle width="135" height="26" as="alternateBounds" />
          </mxGeometry>
        </mxCell>
        <mxCell id="eL9mVTa_U1fSFRPkYWSZ-35" value="actions" style="connectable=0;recursiveResize=0;strokeColor=inherit;fillColor=none;align=left;whiteSpace=wrap;html=1;spacing=6;" parent="eL9mVTa_U1fSFRPkYWSZ-33" vertex="1">
          <mxGeometry x="135" width="135" height="26" as="geometry">
            <mxRectangle width="135" height="26" as="alternateBounds" />
          </mxGeometry>
        </mxCell>
        <mxCell id="eL9mVTa_U1fSFRPkYWSZ-62" style="shape=tableRow;horizontal=0;startSize=0;swimlaneHead=0;swimlaneBody=0;top=0;left=0;bottom=0;right=0;dropTarget=0;collapsible=0;recursiveResize=0;expand=0;fontStyle=0;fillColor=none;strokeColor=inherit;" parent="eL9mVTa_U1fSFRPkYWSZ-24" vertex="1">
          <mxGeometry y="78" width="270" height="26" as="geometry" />
        </mxCell>
        <mxCell id="eL9mVTa_U1fSFRPkYWSZ-63" value="game_canvas" style="connectable=0;recursiveResize=0;strokeColor=inherit;fillColor=none;align=left;whiteSpace=wrap;html=1;spacing=6;" parent="eL9mVTa_U1fSFRPkYWSZ-62" vertex="1">
          <mxGeometry width="135" height="26" as="geometry">
            <mxRectangle width="135" height="26" as="alternateBounds" />
          </mxGeometry>
        </mxCell>
        <mxCell id="eL9mVTa_U1fSFRPkYWSZ-64" value="state_stack" style="connectable=0;recursiveResize=0;strokeColor=inherit;fillColor=none;align=left;whiteSpace=wrap;html=1;spacing=6;" parent="eL9mVTa_U1fSFRPkYWSZ-62" vertex="1">
          <mxGeometry x="135" width="135" height="26" as="geometry">
            <mxRectangle width="135" height="26" as="alternateBounds" />
          </mxGeometry>
        </mxCell>
        <mxCell id="eL9mVTa_U1fSFRPkYWSZ-59" style="shape=tableRow;horizontal=0;startSize=0;swimlaneHead=0;swimlaneBody=0;top=0;left=0;bottom=0;right=0;dropTarget=0;collapsible=0;recursiveResize=0;expand=0;fontStyle=0;fillColor=none;strokeColor=inherit;" parent="eL9mVTa_U1fSFRPkYWSZ-24" vertex="1">
          <mxGeometry y="104" width="270" height="26" as="geometry" />
        </mxCell>
        <mxCell id="eL9mVTa_U1fSFRPkYWSZ-60" value="screen_size" style="connectable=0;recursiveResize=0;strokeColor=inherit;fillColor=none;align=left;whiteSpace=wrap;html=1;spacing=6;" parent="eL9mVTa_U1fSFRPkYWSZ-59" vertex="1">
          <mxGeometry width="135" height="26" as="geometry">
            <mxRectangle width="135" height="26" as="alternateBounds" />
          </mxGeometry>
        </mxCell>
        <mxCell id="eL9mVTa_U1fSFRPkYWSZ-61" value="clock" style="connectable=0;recursiveResize=0;strokeColor=inherit;fillColor=none;align=left;whiteSpace=wrap;html=1;spacing=6;" parent="eL9mVTa_U1fSFRPkYWSZ-59" vertex="1">
          <mxGeometry x="135" width="135" height="26" as="geometry">
            <mxRectangle width="135" height="26" as="alternateBounds" />
          </mxGeometry>
        </mxCell>
        <mxCell id="eL9mVTa_U1fSFRPkYWSZ-68" style="shape=tableRow;horizontal=0;startSize=0;swimlaneHead=0;swimlaneBody=0;top=0;left=0;bottom=0;right=0;dropTarget=0;collapsible=0;recursiveResize=0;expand=0;fontStyle=0;fillColor=none;strokeColor=inherit;" parent="eL9mVTa_U1fSFRPkYWSZ-24" vertex="1">
          <mxGeometry y="130" width="270" height="26" as="geometry" />
        </mxCell>
        <mxCell id="eL9mVTa_U1fSFRPkYWSZ-69" value="screen" style="connectable=0;recursiveResize=0;strokeColor=inherit;fillColor=none;align=left;whiteSpace=wrap;html=1;spacing=6;" parent="eL9mVTa_U1fSFRPkYWSZ-68" vertex="1">
          <mxGeometry width="135" height="26" as="geometry">
            <mxRectangle width="135" height="26" as="alternateBounds" />
          </mxGeometry>
        </mxCell>
        <mxCell id="eL9mVTa_U1fSFRPkYWSZ-70" value="ships" style="connectable=0;recursiveResize=0;strokeColor=inherit;fillColor=none;align=left;whiteSpace=wrap;html=1;spacing=6;" parent="eL9mVTa_U1fSFRPkYWSZ-68" vertex="1">
          <mxGeometry x="135" width="135" height="26" as="geometry">
            <mxRectangle width="135" height="26" as="alternateBounds" />
          </mxGeometry>
        </mxCell>
        <mxCell id="eL9mVTa_U1fSFRPkYWSZ-71" style="shape=tableRow;horizontal=0;startSize=0;swimlaneHead=0;swimlaneBody=0;top=0;left=0;bottom=0;right=0;dropTarget=0;collapsible=0;recursiveResize=0;expand=0;fontStyle=0;fillColor=none;strokeColor=inherit;" parent="eL9mVTa_U1fSFRPkYWSZ-24" vertex="1">
          <mxGeometry y="156" width="270" height="26" as="geometry" />
        </mxCell>
        <mxCell id="eL9mVTa_U1fSFRPkYWSZ-72" value="player1_id" style="connectable=0;recursiveResize=0;strokeColor=inherit;fillColor=none;align=left;whiteSpace=wrap;html=1;spacing=6;" parent="eL9mVTa_U1fSFRPkYWSZ-71" vertex="1">
          <mxGeometry width="135" height="26" as="geometry">
            <mxRectangle width="135" height="26" as="alternateBounds" />
          </mxGeometry>
        </mxCell>
        <mxCell id="eL9mVTa_U1fSFRPkYWSZ-73" value="player2_id" style="connectable=0;recursiveResize=0;strokeColor=inherit;fillColor=none;align=left;whiteSpace=wrap;html=1;spacing=6;" parent="eL9mVTa_U1fSFRPkYWSZ-71" vertex="1">
          <mxGeometry x="135" width="135" height="26" as="geometry">
            <mxRectangle width="135" height="26" as="alternateBounds" />
          </mxGeometry>
        </mxCell>
        <mxCell id="eL9mVTa_U1fSFRPkYWSZ-74" style="shape=tableRow;horizontal=0;startSize=0;swimlaneHead=0;swimlaneBody=0;top=0;left=0;bottom=0;right=0;dropTarget=0;collapsible=0;recursiveResize=0;expand=0;fontStyle=0;fillColor=none;strokeColor=inherit;" parent="eL9mVTa_U1fSFRPkYWSZ-24" vertex="1">
          <mxGeometry y="182" width="270" height="26" as="geometry" />
        </mxCell>
        <mxCell id="eL9mVTa_U1fSFRPkYWSZ-75" value="player1_ship" style="connectable=0;recursiveResize=0;strokeColor=inherit;fillColor=none;align=left;whiteSpace=wrap;html=1;spacing=6;" parent="eL9mVTa_U1fSFRPkYWSZ-74" vertex="1">
          <mxGeometry width="135" height="26" as="geometry">
            <mxRectangle width="135" height="26" as="alternateBounds" />
          </mxGeometry>
        </mxCell>
        <mxCell id="eL9mVTa_U1fSFRPkYWSZ-76" value="player2_ship" style="connectable=0;recursiveResize=0;strokeColor=inherit;fillColor=none;align=left;whiteSpace=wrap;html=1;spacing=6;" parent="eL9mVTa_U1fSFRPkYWSZ-74" vertex="1">
          <mxGeometry x="135" width="135" height="26" as="geometry">
            <mxRectangle width="135" height="26" as="alternateBounds" />
          </mxGeometry>
        </mxCell>
        <mxCell id="ae1ApY-LsDryaNe70n_3-3" style="shape=tableRow;horizontal=0;startSize=0;swimlaneHead=0;swimlaneBody=0;top=0;left=0;bottom=0;right=0;dropTarget=0;collapsible=0;recursiveResize=0;expand=0;fontStyle=0;fillColor=none;strokeColor=inherit;" parent="eL9mVTa_U1fSFRPkYWSZ-24" vertex="1">
          <mxGeometry y="208" width="270" height="26" as="geometry" />
        </mxCell>
        <mxCell id="ae1ApY-LsDryaNe70n_3-4" value="retro_font_20" style="connectable=0;recursiveResize=0;strokeColor=inherit;fillColor=none;align=left;whiteSpace=wrap;html=1;spacing=6;" parent="ae1ApY-LsDryaNe70n_3-3" vertex="1">
          <mxGeometry width="135" height="26" as="geometry">
            <mxRectangle width="135" height="26" as="alternateBounds" />
          </mxGeometry>
        </mxCell>
        <mxCell id="ae1ApY-LsDryaNe70n_3-5" value="retro_font_36" style="connectable=0;recursiveResize=0;strokeColor=inherit;fillColor=none;align=left;whiteSpace=wrap;html=1;spacing=6;" parent="ae1ApY-LsDryaNe70n_3-3" vertex="1">
          <mxGeometry x="135" width="135" height="26" as="geometry">
            <mxRectangle width="135" height="26" as="alternateBounds" />
          </mxGeometry>
        </mxCell>
        <mxCell id="ae1ApY-LsDryaNe70n_3-0" style="shape=tableRow;horizontal=0;startSize=0;swimlaneHead=0;swimlaneBody=0;top=0;left=0;bottom=0;right=0;dropTarget=0;collapsible=0;recursiveResize=0;expand=0;fontStyle=0;fillColor=none;strokeColor=inherit;" parent="eL9mVTa_U1fSFRPkYWSZ-24" vertex="1">
          <mxGeometry y="234" width="270" height="26" as="geometry" />
        </mxCell>
        <mxCell id="ae1ApY-LsDryaNe70n_3-1" value="retro_font_28" style="connectable=0;recursiveResize=0;strokeColor=inherit;fillColor=none;align=left;whiteSpace=wrap;html=1;spacing=6;" parent="ae1ApY-LsDryaNe70n_3-0" vertex="1">
          <mxGeometry width="135" height="26" as="geometry">
            <mxRectangle width="135" height="26" as="alternateBounds" />
          </mxGeometry>
        </mxCell>
        <mxCell id="ae1ApY-LsDryaNe70n_3-2" style="connectable=0;recursiveResize=0;strokeColor=inherit;fillColor=none;align=left;whiteSpace=wrap;html=1;spacing=6;" parent="ae1ApY-LsDryaNe70n_3-0" vertex="1">
          <mxGeometry x="135" width="135" height="26" as="geometry">
            <mxRectangle width="135" height="26" as="alternateBounds" />
          </mxGeometry>
        </mxCell>
        <mxCell id="eL9mVTa_U1fSFRPkYWSZ-77" value="" style="endArrow=none;dashed=1;html=1;rounded=0;entryX=0.5;entryY=0;entryDx=0;entryDy=0;exitX=0.5;exitY=1;exitDx=0;exitDy=0;" parent="eL9mVTa_U1fSFRPkYWSZ-24" source="ae1ApY-LsDryaNe70n_3-0" target="eL9mVTa_U1fSFRPkYWSZ-25" edge="1">
          <mxGeometry width="50" height="50" relative="1" as="geometry">
            <mxPoint x="169.93" y="144" as="sourcePoint" />
            <mxPoint x="219.93" y="94" as="targetPoint" />
          </mxGeometry>
        </mxCell>
        <mxCell id="uUCPMOX3y8Ib5dSfwemb-51" value="" style="line;strokeWidth=1;rotatable=0;dashed=0;labelPosition=right;align=left;verticalAlign=middle;spacingTop=0;spacingLeft=6;points=[];portConstraint=eastwest;" parent="uUCPMOX3y8Ib5dSfwemb-49" vertex="1">
          <mxGeometry y="286" width="270" height="10" as="geometry" />
        </mxCell>
        <mxCell id="SjV1C5oEsbuHmI56tXHO-52" value="" style="childLayout=tableLayout;recursiveResize=0;shadow=0;fillColor=none;strokeColor=none;" vertex="1" parent="uUCPMOX3y8Ib5dSfwemb-49">
          <mxGeometry y="296" width="270" height="99" as="geometry" />
        </mxCell>
        <mxCell id="SjV1C5oEsbuHmI56tXHO-53" value="" style="shape=tableRow;horizontal=0;startSize=0;swimlaneHead=0;swimlaneBody=0;top=0;left=0;bottom=0;right=0;dropTarget=0;collapsible=0;recursiveResize=0;expand=0;fontStyle=0;fillColor=none;" vertex="1" parent="SjV1C5oEsbuHmI56tXHO-52">
          <mxGeometry width="270" height="25" as="geometry" />
        </mxCell>
        <mxCell id="SjV1C5oEsbuHmI56tXHO-54" value="game_loop()" style="connectable=0;recursiveResize=0;strokeColor=none;fillColor=none;align=left;whiteSpace=wrap;html=1;spacing=6;" vertex="1" parent="SjV1C5oEsbuHmI56tXHO-53">
          <mxGeometry width="135" height="25" as="geometry">
            <mxRectangle width="135" height="25" as="alternateBounds" />
          </mxGeometry>
        </mxCell>
        <mxCell id="SjV1C5oEsbuHmI56tXHO-56" value="load_assets()" style="connectable=0;recursiveResize=0;strokeColor=none;fillColor=none;align=left;whiteSpace=wrap;html=1;spacing=6;" vertex="1" parent="SjV1C5oEsbuHmI56tXHO-53">
          <mxGeometry x="135" width="135" height="25" as="geometry">
            <mxRectangle width="135" height="25" as="alternateBounds" />
          </mxGeometry>
        </mxCell>
        <mxCell id="SjV1C5oEsbuHmI56tXHO-57" style="shape=tableRow;horizontal=0;startSize=0;swimlaneHead=0;swimlaneBody=0;top=0;left=0;bottom=0;right=0;dropTarget=0;collapsible=0;recursiveResize=0;expand=0;fontStyle=0;fillColor=none;" vertex="1" parent="SjV1C5oEsbuHmI56tXHO-52">
          <mxGeometry y="25" width="270" height="24" as="geometry" />
        </mxCell>
        <mxCell id="SjV1C5oEsbuHmI56tXHO-58" value="get_events()" style="connectable=0;recursiveResize=0;strokeColor=none;fillColor=none;align=left;whiteSpace=wrap;html=1;spacing=6;" vertex="1" parent="SjV1C5oEsbuHmI56tXHO-57">
          <mxGeometry width="135" height="24" as="geometry">
            <mxRectangle width="135" height="24" as="alternateBounds" />
          </mxGeometry>
        </mxCell>
        <mxCell id="SjV1C5oEsbuHmI56tXHO-60" value="load_players()" style="connectable=0;recursiveResize=0;strokeColor=none;fillColor=none;align=left;whiteSpace=wrap;html=1;spacing=6;" vertex="1" parent="SjV1C5oEsbuHmI56tXHO-57">
          <mxGeometry x="135" width="135" height="24" as="geometry">
            <mxRectangle width="135" height="24" as="alternateBounds" />
          </mxGeometry>
        </mxCell>
        <mxCell id="SjV1C5oEsbuHmI56tXHO-61" style="shape=tableRow;horizontal=0;startSize=0;swimlaneHead=0;swimlaneBody=0;top=0;left=0;bottom=0;right=0;dropTarget=0;collapsible=0;recursiveResize=0;expand=0;fontStyle=0;fillColor=none;" vertex="1" parent="SjV1C5oEsbuHmI56tXHO-52">
          <mxGeometry y="49" width="270" height="25" as="geometry" />
        </mxCell>
        <mxCell id="SjV1C5oEsbuHmI56tXHO-62" value="update()" style="connectable=0;recursiveResize=0;strokeColor=none;fillColor=none;align=left;whiteSpace=wrap;html=1;spacing=6;" vertex="1" parent="SjV1C5oEsbuHmI56tXHO-61">
          <mxGeometry width="135" height="25" as="geometry">
            <mxRectangle width="135" height="25" as="alternateBounds" />
          </mxGeometry>
        </mxCell>
        <mxCell id="SjV1C5oEsbuHmI56tXHO-64" value="load_states()" style="connectable=0;recursiveResize=0;strokeColor=none;fillColor=none;align=left;whiteSpace=wrap;html=1;spacing=6;" vertex="1" parent="SjV1C5oEsbuHmI56tXHO-61">
          <mxGeometry x="135" width="135" height="25" as="geometry">
            <mxRectangle width="135" height="25" as="alternateBounds" />
          </mxGeometry>
        </mxCell>
        <mxCell id="SjV1C5oEsbuHmI56tXHO-65" style="shape=tableRow;horizontal=0;startSize=0;swimlaneHead=0;swimlaneBody=0;top=0;left=0;bottom=0;right=0;dropTarget=0;collapsible=0;recursiveResize=0;expand=0;fontStyle=0;fillColor=none;" vertex="1" parent="SjV1C5oEsbuHmI56tXHO-52">
          <mxGeometry y="74" width="270" height="25" as="geometry" />
        </mxCell>
        <mxCell id="SjV1C5oEsbuHmI56tXHO-66" value="render()" style="connectable=0;recursiveResize=0;strokeColor=none;fillColor=none;align=left;whiteSpace=wrap;html=1;spacing=6;" vertex="1" parent="SjV1C5oEsbuHmI56tXHO-65">
          <mxGeometry width="135" height="25" as="geometry">
            <mxRectangle width="135" height="25" as="alternateBounds" />
          </mxGeometry>
        </mxCell>
        <mxCell id="SjV1C5oEsbuHmI56tXHO-67" value="reset_keys()" style="connectable=0;recursiveResize=0;strokeColor=none;fillColor=none;align=left;whiteSpace=wrap;html=1;spacing=6;" vertex="1" parent="SjV1C5oEsbuHmI56tXHO-65">
          <mxGeometry x="135" width="135" height="25" as="geometry">
            <mxRectangle width="135" height="25" as="alternateBounds" />
          </mxGeometry>
        </mxCell>
        <mxCell id="uUCPMOX3y8Ib5dSfwemb-63" value="draw_text(surface, text, color, x, y, font = None)&#xa;" style="text;align=left;verticalAlign=top;spacingLeft=4;spacingRight=4;overflow=hidden;rotatable=0;points=[[0,0.5],[1,0.5]];portConstraint=eastwest;" parent="uUCPMOX3y8Ib5dSfwemb-49" vertex="1">
          <mxGeometry y="395" width="270" height="26" as="geometry" />
        </mxCell>
        <mxCell id="SjV1C5oEsbuHmI56tXHO-68" value="" style="endArrow=none;dashed=1;html=1;rounded=0;entryX=0.5;entryY=0;entryDx=0;entryDy=0;" edge="1" parent="uUCPMOX3y8Ib5dSfwemb-49" source="uUCPMOX3y8Ib5dSfwemb-63" target="SjV1C5oEsbuHmI56tXHO-53">
          <mxGeometry width="50" height="50" relative="1" as="geometry">
            <mxPoint x="339.93" y="380" as="sourcePoint" />
            <mxPoint x="389.93" y="330" as="targetPoint" />
          </mxGeometry>
        </mxCell>
        <mxCell id="oUhqUqcZ6ZFia1W_-bfi-8" value="State" style="swimlane;fontStyle=1;align=center;verticalAlign=top;childLayout=stackLayout;horizontal=1;startSize=26;horizontalStack=0;resizeParent=1;resizeLast=0;collapsible=1;marginBottom=0;rounded=0;shadow=0;strokeWidth=1;" parent="WIyWlLk6GJQsqaUBKTNV-1" vertex="1">
          <mxGeometry x="410" y="1290" width="160" height="244" as="geometry">
            <mxRectangle x="230" y="140" width="160" height="26" as="alternateBounds" />
          </mxGeometry>
        </mxCell>
        <mxCell id="oUhqUqcZ6ZFia1W_-bfi-9" value="game" style="text;align=left;verticalAlign=top;spacingLeft=4;spacingRight=4;overflow=hidden;rotatable=0;points=[[0,0.5],[1,0.5]];portConstraint=eastwest;" parent="oUhqUqcZ6ZFia1W_-bfi-8" vertex="1">
          <mxGeometry y="26" width="160" height="26" as="geometry" />
        </mxCell>
        <mxCell id="oUhqUqcZ6ZFia1W_-bfi-13" value="prev_state" style="text;align=left;verticalAlign=top;spacingLeft=4;spacingRight=4;overflow=hidden;rotatable=0;points=[[0,0.5],[1,0.5]];portConstraint=eastwest;" parent="oUhqUqcZ6ZFia1W_-bfi-8" vertex="1">
          <mxGeometry y="52" width="160" height="26" as="geometry" />
        </mxCell>
        <mxCell id="oUhqUqcZ6ZFia1W_-bfi-14" value="uimanager" style="text;align=left;verticalAlign=top;spacingLeft=4;spacingRight=4;overflow=hidden;rotatable=0;points=[[0,0.5],[1,0.5]];portConstraint=eastwest;" parent="oUhqUqcZ6ZFia1W_-bfi-8" vertex="1">
          <mxGeometry y="78" width="160" height="26" as="geometry" />
        </mxCell>
        <mxCell id="oUhqUqcZ6ZFia1W_-bfi-10" value="" style="line;strokeWidth=1;rotatable=0;dashed=0;labelPosition=right;align=left;verticalAlign=middle;spacingTop=0;spacingLeft=6;points=[];portConstraint=eastwest;" parent="oUhqUqcZ6ZFia1W_-bfi-8" vertex="1">
          <mxGeometry y="104" width="160" height="10" as="geometry" />
        </mxCell>
        <mxCell id="oUhqUqcZ6ZFia1W_-bfi-11" value="process_event(event)" style="text;align=left;verticalAlign=top;spacingLeft=4;spacingRight=4;overflow=hidden;rotatable=0;points=[[0,0.5],[1,0.5]];portConstraint=eastwest;fillColor=none;whiteSpace=wrap;strokeColor=none;" parent="oUhqUqcZ6ZFia1W_-bfi-8" vertex="1">
          <mxGeometry y="114" width="160" height="26" as="geometry" />
        </mxCell>
        <mxCell id="oUhqUqcZ6ZFia1W_-bfi-15" value="update(actions)" style="text;align=left;verticalAlign=top;spacingLeft=4;spacingRight=4;overflow=hidden;rotatable=0;points=[[0,0.5],[1,0.5]];portConstraint=eastwest;" parent="oUhqUqcZ6ZFia1W_-bfi-8" vertex="1">
          <mxGeometry y="140" width="160" height="26" as="geometry" />
        </mxCell>
        <mxCell id="oUhqUqcZ6ZFia1W_-bfi-17" value="render(display_surface)" style="text;align=left;verticalAlign=top;spacingLeft=4;spacingRight=4;overflow=hidden;rotatable=0;points=[[0,0.5],[1,0.5]];portConstraint=eastwest;" parent="oUhqUqcZ6ZFia1W_-bfi-8" vertex="1">
          <mxGeometry y="166" width="160" height="26" as="geometry" />
        </mxCell>
        <mxCell id="oUhqUqcZ6ZFia1W_-bfi-18" value="enter_state()" style="text;align=left;verticalAlign=top;spacingLeft=4;spacingRight=4;overflow=hidden;rotatable=0;points=[[0,0.5],[1,0.5]];portConstraint=eastwest;" parent="oUhqUqcZ6ZFia1W_-bfi-8" vertex="1">
          <mxGeometry y="192" width="160" height="26" as="geometry" />
        </mxCell>
        <mxCell id="oUhqUqcZ6ZFia1W_-bfi-16" value="exit_state(count = 1)" style="text;align=left;verticalAlign=top;spacingLeft=4;spacingRight=4;overflow=hidden;rotatable=0;points=[[0,0.5],[1,0.5]];portConstraint=eastwest;" parent="oUhqUqcZ6ZFia1W_-bfi-8" vertex="1">
          <mxGeometry y="218" width="160" height="26" as="geometry" />
        </mxCell>
        <mxCell id="oUhqUqcZ6ZFia1W_-bfi-65" style="edgeStyle=orthogonalEdgeStyle;rounded=0;orthogonalLoop=1;jettySize=auto;html=1;startSize=6;endSize=12;strokeWidth=3;" parent="WIyWlLk6GJQsqaUBKTNV-1" source="oUhqUqcZ6ZFia1W_-bfi-19" target="oUhqUqcZ6ZFia1W_-bfi-8" edge="1">
          <mxGeometry relative="1" as="geometry">
            <Array as="points">
              <mxPoint x="490" y="1780" />
              <mxPoint x="490" y="1780" />
            </Array>
          </mxGeometry>
        </mxCell>
        <mxCell id="oUhqUqcZ6ZFia1W_-bfi-19" value="ControlsScreen" style="swimlane;fontStyle=1;align=center;verticalAlign=top;childLayout=stackLayout;horizontal=1;startSize=26;horizontalStack=0;resizeParent=1;resizeLast=0;collapsible=1;marginBottom=0;rounded=0;shadow=0;strokeWidth=1;" parent="WIyWlLk6GJQsqaUBKTNV-1" vertex="1">
          <mxGeometry x="440" y="1860" width="160" height="170" as="geometry">
            <mxRectangle x="230" y="140" width="160" height="26" as="alternateBounds" />
          </mxGeometry>
        </mxCell>
        <mxCell id="oUhqUqcZ6ZFia1W_-bfi-20" value="background" style="text;align=left;verticalAlign=top;spacingLeft=4;spacingRight=4;overflow=hidden;rotatable=0;points=[[0,0.5],[1,0.5]];portConstraint=eastwest;" parent="oUhqUqcZ6ZFia1W_-bfi-19" vertex="1">
          <mxGeometry y="26" width="160" height="26" as="geometry" />
        </mxCell>
        <mxCell id="oUhqUqcZ6ZFia1W_-bfi-21" value="back_button" style="text;align=left;verticalAlign=top;spacingLeft=4;spacingRight=4;overflow=hidden;rotatable=0;points=[[0,0.5],[1,0.5]];portConstraint=eastwest;" parent="oUhqUqcZ6ZFia1W_-bfi-19" vertex="1">
          <mxGeometry y="52" width="160" height="26" as="geometry" />
        </mxCell>
        <mxCell id="oUhqUqcZ6ZFia1W_-bfi-23" value="" style="line;strokeWidth=1;rotatable=0;dashed=0;labelPosition=right;align=left;verticalAlign=middle;spacingTop=0;spacingLeft=6;points=[];portConstraint=eastwest;" parent="oUhqUqcZ6ZFia1W_-bfi-19" vertex="1">
          <mxGeometry y="78" width="160" height="10" as="geometry" />
        </mxCell>
        <mxCell id="oUhqUqcZ6ZFia1W_-bfi-24" value="process_event(event)" style="text;align=left;verticalAlign=top;spacingLeft=4;spacingRight=4;overflow=hidden;rotatable=0;points=[[0,0.5],[1,0.5]];portConstraint=eastwest;fillColor=none;whiteSpace=wrap;strokeColor=none;" parent="oUhqUqcZ6ZFia1W_-bfi-19" vertex="1">
          <mxGeometry y="88" width="160" height="26" as="geometry" />
        </mxCell>
        <mxCell id="oUhqUqcZ6ZFia1W_-bfi-25" value="update(actions)" style="text;align=left;verticalAlign=top;spacingLeft=4;spacingRight=4;overflow=hidden;rotatable=0;points=[[0,0.5],[1,0.5]];portConstraint=eastwest;" parent="oUhqUqcZ6ZFia1W_-bfi-19" vertex="1">
          <mxGeometry y="114" width="160" height="26" as="geometry" />
        </mxCell>
        <mxCell id="oUhqUqcZ6ZFia1W_-bfi-26" value="render(display_surface)" style="text;align=left;verticalAlign=top;spacingLeft=4;spacingRight=4;overflow=hidden;rotatable=0;points=[[0,0.5],[1,0.5]];portConstraint=eastwest;" parent="oUhqUqcZ6ZFia1W_-bfi-19" vertex="1">
          <mxGeometry y="140" width="160" height="26" as="geometry" />
        </mxCell>
        <mxCell id="SjV1C5oEsbuHmI56tXHO-71" style="edgeStyle=orthogonalEdgeStyle;rounded=0;orthogonalLoop=1;jettySize=auto;html=1;endSize=12;startSize=12;strokeWidth=3;" edge="1" parent="WIyWlLk6GJQsqaUBKTNV-1" source="oUhqUqcZ6ZFia1W_-bfi-29" target="oUhqUqcZ6ZFia1W_-bfi-8">
          <mxGeometry relative="1" as="geometry">
            <Array as="points">
              <mxPoint x="160" y="1830" />
              <mxPoint x="490" y="1830" />
            </Array>
          </mxGeometry>
        </mxCell>
        <mxCell id="oUhqUqcZ6ZFia1W_-bfi-29" value="GameOverScreen" style="swimlane;fontStyle=1;align=center;verticalAlign=top;childLayout=stackLayout;horizontal=1;startSize=26;horizontalStack=0;resizeParent=1;resizeLast=0;collapsible=1;marginBottom=0;rounded=0;shadow=0;strokeWidth=1;" parent="WIyWlLk6GJQsqaUBKTNV-1" vertex="1">
          <mxGeometry x="80" y="1860" width="160" height="250" as="geometry">
            <mxRectangle x="230" y="140" width="160" height="26" as="alternateBounds" />
          </mxGeometry>
        </mxCell>
        <mxCell id="oUhqUqcZ6ZFia1W_-bfi-30" value="winnerid" style="text;align=left;verticalAlign=top;spacingLeft=4;spacingRight=4;overflow=hidden;rotatable=0;points=[[0,0.5],[1,0.5]];portConstraint=eastwest;" parent="oUhqUqcZ6ZFia1W_-bfi-29" vertex="1">
          <mxGeometry y="26" width="160" height="26" as="geometry" />
        </mxCell>
        <mxCell id="oUhqUqcZ6ZFia1W_-bfi-31" value="back_button" style="text;align=left;verticalAlign=top;spacingLeft=4;spacingRight=4;overflow=hidden;rotatable=0;points=[[0,0.5],[1,0.5]];portConstraint=eastwest;" parent="oUhqUqcZ6ZFia1W_-bfi-29" vertex="1">
          <mxGeometry y="52" width="160" height="26" as="geometry" />
        </mxCell>
        <mxCell id="oUhqUqcZ6ZFia1W_-bfi-33" value="" style="line;strokeWidth=1;rotatable=0;dashed=0;labelPosition=right;align=left;verticalAlign=middle;spacingTop=0;spacingLeft=6;points=[];portConstraint=eastwest;" parent="oUhqUqcZ6ZFia1W_-bfi-29" vertex="1">
          <mxGeometry y="78" width="160" height="10" as="geometry" />
        </mxCell>
        <mxCell id="oUhqUqcZ6ZFia1W_-bfi-34" value="process_event(event)" style="text;align=left;verticalAlign=top;spacingLeft=4;spacingRight=4;overflow=hidden;rotatable=0;points=[[0,0.5],[1,0.5]];portConstraint=eastwest;fillColor=none;whiteSpace=wrap;strokeColor=none;" parent="oUhqUqcZ6ZFia1W_-bfi-29" vertex="1">
          <mxGeometry y="88" width="160" height="26" as="geometry" />
        </mxCell>
        <mxCell id="oUhqUqcZ6ZFia1W_-bfi-35" value="update(actions)" style="text;align=left;verticalAlign=top;spacingLeft=4;spacingRight=4;overflow=hidden;rotatable=0;points=[[0,0.5],[1,0.5]];portConstraint=eastwest;" parent="oUhqUqcZ6ZFia1W_-bfi-29" vertex="1">
          <mxGeometry y="114" width="160" height="26" as="geometry" />
        </mxCell>
        <mxCell id="oUhqUqcZ6ZFia1W_-bfi-36" value="render(display_surface)" style="text;align=left;verticalAlign=top;spacingLeft=4;spacingRight=4;overflow=hidden;rotatable=0;points=[[0,0.5],[1,0.5]];portConstraint=eastwest;" parent="oUhqUqcZ6ZFia1W_-bfi-29" vertex="1">
          <mxGeometry y="140" width="160" height="26" as="geometry" />
        </mxCell>
        <mxCell id="oUhqUqcZ6ZFia1W_-bfi-37" value="exit_screen()" style="text;align=left;verticalAlign=top;spacingLeft=4;spacingRight=4;overflow=hidden;rotatable=0;points=[[0,0.5],[1,0.5]];portConstraint=eastwest;" parent="oUhqUqcZ6ZFia1W_-bfi-29" vertex="1">
          <mxGeometry y="166" width="160" height="26" as="geometry" />
        </mxCell>
        <mxCell id="oUhqUqcZ6ZFia1W_-bfi-39" value="playerid_to_name(playerid)" style="text;align=left;verticalAlign=top;spacingLeft=4;spacingRight=4;overflow=hidden;rotatable=0;points=[[0,0.5],[1,0.5]];portConstraint=eastwest;" parent="oUhqUqcZ6ZFia1W_-bfi-29" vertex="1">
          <mxGeometry y="192" width="160" height="26" as="geometry" />
        </mxCell>
        <mxCell id="oUhqUqcZ6ZFia1W_-bfi-38" value="get_ship(playerid)" style="text;align=left;verticalAlign=top;spacingLeft=4;spacingRight=4;overflow=hidden;rotatable=0;points=[[0,0.5],[1,0.5]];portConstraint=eastwest;" parent="oUhqUqcZ6ZFia1W_-bfi-29" vertex="1">
          <mxGeometry y="218" width="160" height="26" as="geometry" />
        </mxCell>
        <mxCell id="oUhqUqcZ6ZFia1W_-bfi-103" style="edgeStyle=orthogonalEdgeStyle;rounded=0;orthogonalLoop=1;jettySize=auto;html=1;startSize=6;endSize=12;strokeWidth=3;" parent="WIyWlLk6GJQsqaUBKTNV-1" source="oUhqUqcZ6ZFia1W_-bfi-40" target="oUhqUqcZ6ZFia1W_-bfi-8" edge="1">
          <mxGeometry relative="1" as="geometry">
            <Array as="points">
              <mxPoint x="303" y="1830" />
              <mxPoint x="490" y="1830" />
            </Array>
          </mxGeometry>
        </mxCell>
        <mxCell id="oUhqUqcZ6ZFia1W_-bfi-40" value="MenuScreen" style="swimlane;fontStyle=1;align=center;verticalAlign=top;childLayout=stackLayout;horizontal=1;startSize=26;horizontalStack=0;resizeParent=1;resizeLast=0;collapsible=1;marginBottom=0;rounded=0;shadow=0;strokeWidth=1;" parent="WIyWlLk6GJQsqaUBKTNV-1" vertex="1">
          <mxGeometry x="260" y="1860" width="160" height="300" as="geometry">
            <mxRectangle x="230" y="140" width="160" height="26" as="alternateBounds" />
          </mxGeometry>
        </mxCell>
        <mxCell id="oUhqUqcZ6ZFia1W_-bfi-51" value="background" style="text;align=left;verticalAlign=top;spacingLeft=4;spacingRight=4;overflow=hidden;rotatable=0;points=[[0,0.5],[1,0.5]];portConstraint=eastwest;" parent="oUhqUqcZ6ZFia1W_-bfi-40" vertex="1">
          <mxGeometry y="26" width="160" height="26" as="geometry" />
        </mxCell>
        <mxCell id="oUhqUqcZ6ZFia1W_-bfi-41" value="logo_image" style="text;align=left;verticalAlign=top;spacingLeft=4;spacingRight=4;overflow=hidden;rotatable=0;points=[[0,0.5],[1,0.5]];portConstraint=eastwest;" parent="oUhqUqcZ6ZFia1W_-bfi-40" vertex="1">
          <mxGeometry y="52" width="160" height="26" as="geometry" />
        </mxCell>
        <mxCell id="oUhqUqcZ6ZFia1W_-bfi-42" value="play_button" style="text;align=left;verticalAlign=top;spacingLeft=4;spacingRight=4;overflow=hidden;rotatable=0;points=[[0,0.5],[1,0.5]];portConstraint=eastwest;" parent="oUhqUqcZ6ZFia1W_-bfi-40" vertex="1">
          <mxGeometry y="78" width="160" height="26" as="geometry" />
        </mxCell>
        <mxCell id="oUhqUqcZ6ZFia1W_-bfi-53" value="controls_button" style="text;align=left;verticalAlign=top;spacingLeft=4;spacingRight=4;overflow=hidden;rotatable=0;points=[[0,0.5],[1,0.5]];portConstraint=eastwest;" parent="oUhqUqcZ6ZFia1W_-bfi-40" vertex="1">
          <mxGeometry y="104" width="160" height="26" as="geometry" />
        </mxCell>
        <mxCell id="oUhqUqcZ6ZFia1W_-bfi-52" value="exit_button" style="text;align=left;verticalAlign=top;spacingLeft=4;spacingRight=4;overflow=hidden;rotatable=0;points=[[0,0.5],[1,0.5]];portConstraint=eastwest;" parent="oUhqUqcZ6ZFia1W_-bfi-40" vertex="1">
          <mxGeometry y="130" width="160" height="26" as="geometry" />
        </mxCell>
        <mxCell id="oUhqUqcZ6ZFia1W_-bfi-44" value="" style="line;strokeWidth=1;rotatable=0;dashed=0;labelPosition=right;align=left;verticalAlign=middle;spacingTop=0;spacingLeft=6;points=[];portConstraint=eastwest;" parent="oUhqUqcZ6ZFia1W_-bfi-40" vertex="1">
          <mxGeometry y="156" width="160" height="10" as="geometry" />
        </mxCell>
        <mxCell id="oUhqUqcZ6ZFia1W_-bfi-45" value="process_event(event)" style="text;align=left;verticalAlign=top;spacingLeft=4;spacingRight=4;overflow=hidden;rotatable=0;points=[[0,0.5],[1,0.5]];portConstraint=eastwest;fillColor=none;whiteSpace=wrap;strokeColor=none;" parent="oUhqUqcZ6ZFia1W_-bfi-40" vertex="1">
          <mxGeometry y="166" width="160" height="26" as="geometry" />
        </mxCell>
        <mxCell id="oUhqUqcZ6ZFia1W_-bfi-46" value="update(actions)" style="text;align=left;verticalAlign=top;spacingLeft=4;spacingRight=4;overflow=hidden;rotatable=0;points=[[0,0.5],[1,0.5]];portConstraint=eastwest;" parent="oUhqUqcZ6ZFia1W_-bfi-40" vertex="1">
          <mxGeometry y="192" width="160" height="26" as="geometry" />
        </mxCell>
        <mxCell id="oUhqUqcZ6ZFia1W_-bfi-47" value="render(display_surface)" style="text;align=left;verticalAlign=top;spacingLeft=4;spacingRight=4;overflow=hidden;rotatable=0;points=[[0,0.5],[1,0.5]];portConstraint=eastwest;" parent="oUhqUqcZ6ZFia1W_-bfi-40" vertex="1">
          <mxGeometry y="218" width="160" height="26" as="geometry" />
        </mxCell>
        <mxCell id="oUhqUqcZ6ZFia1W_-bfi-48" value="play()" style="text;align=left;verticalAlign=top;spacingLeft=4;spacingRight=4;overflow=hidden;rotatable=0;points=[[0,0.5],[1,0.5]];portConstraint=eastwest;" parent="oUhqUqcZ6ZFia1W_-bfi-40" vertex="1">
          <mxGeometry y="244" width="160" height="26" as="geometry" />
        </mxCell>
        <mxCell id="oUhqUqcZ6ZFia1W_-bfi-49" value="controls()" style="text;align=left;verticalAlign=top;spacingLeft=4;spacingRight=4;overflow=hidden;rotatable=0;points=[[0,0.5],[1,0.5]];portConstraint=eastwest;" parent="oUhqUqcZ6ZFia1W_-bfi-40" vertex="1">
          <mxGeometry y="270" width="160" height="26" as="geometry" />
        </mxCell>
        <mxCell id="oUhqUqcZ6ZFia1W_-bfi-69" style="edgeStyle=orthogonalEdgeStyle;rounded=0;orthogonalLoop=1;jettySize=auto;html=1;startSize=10;endSize=12;strokeWidth=3;" parent="WIyWlLk6GJQsqaUBKTNV-1" source="oUhqUqcZ6ZFia1W_-bfi-55" target="oUhqUqcZ6ZFia1W_-bfi-63" edge="1">
          <mxGeometry relative="1" as="geometry" />
        </mxCell>
        <mxCell id="oUhqUqcZ6ZFia1W_-bfi-55" value="ShipChoiceWindow" style="swimlane;fontStyle=1;align=center;verticalAlign=top;childLayout=stackLayout;horizontal=1;startSize=26;horizontalStack=0;resizeParent=1;resizeLast=0;collapsible=1;marginBottom=0;rounded=0;shadow=0;strokeWidth=1;" parent="WIyWlLk6GJQsqaUBKTNV-1" vertex="1">
          <mxGeometry x="880" y="2066" width="210" height="244" as="geometry">
            <mxRectangle x="230" y="140" width="160" height="26" as="alternateBounds" />
          </mxGeometry>
        </mxCell>
        <mxCell id="oUhqUqcZ6ZFia1W_-bfi-56" value="ships" style="text;align=left;verticalAlign=top;spacingLeft=4;spacingRight=4;overflow=hidden;rotatable=0;points=[[0,0.5],[1,0.5]];portConstraint=eastwest;" parent="oUhqUqcZ6ZFia1W_-bfi-55" vertex="1">
          <mxGeometry y="26" width="210" height="26" as="geometry" />
        </mxCell>
        <mxCell id="oUhqUqcZ6ZFia1W_-bfi-57" value="ships_image_buttons" style="text;align=left;verticalAlign=top;spacingLeft=4;spacingRight=4;overflow=hidden;rotatable=0;points=[[0,0.5],[1,0.5]];portConstraint=eastwest;" parent="oUhqUqcZ6ZFia1W_-bfi-55" vertex="1">
          <mxGeometry y="52" width="210" height="26" as="geometry" />
        </mxCell>
        <mxCell id="oUhqUqcZ6ZFia1W_-bfi-71" value="cancel_button" style="text;align=left;verticalAlign=top;spacingLeft=4;spacingRight=4;overflow=hidden;rotatable=0;points=[[0,0.5],[1,0.5]];portConstraint=eastwest;" parent="oUhqUqcZ6ZFia1W_-bfi-55" vertex="1">
          <mxGeometry y="78" width="210" height="26" as="geometry" />
        </mxCell>
        <mxCell id="oUhqUqcZ6ZFia1W_-bfi-70" value="playerid" style="text;align=left;verticalAlign=top;spacingLeft=4;spacingRight=4;overflow=hidden;rotatable=0;points=[[0,0.5],[1,0.5]];portConstraint=eastwest;" parent="oUhqUqcZ6ZFia1W_-bfi-55" vertex="1">
          <mxGeometry y="104" width="210" height="26" as="geometry" />
        </mxCell>
        <mxCell id="oUhqUqcZ6ZFia1W_-bfi-59" value="" style="line;strokeWidth=1;rotatable=0;dashed=0;labelPosition=right;align=left;verticalAlign=middle;spacingTop=0;spacingLeft=6;points=[];portConstraint=eastwest;" parent="oUhqUqcZ6ZFia1W_-bfi-55" vertex="1">
          <mxGeometry y="130" width="210" height="10" as="geometry" />
        </mxCell>
        <mxCell id="oUhqUqcZ6ZFia1W_-bfi-72" value="process_event(event)" style="text;align=left;verticalAlign=top;spacingLeft=4;spacingRight=4;overflow=hidden;rotatable=0;points=[[0,0.5],[1,0.5]];portConstraint=eastwest;fillColor=none;whiteSpace=wrap;strokeColor=none;" parent="oUhqUqcZ6ZFia1W_-bfi-55" vertex="1">
          <mxGeometry y="140" width="210" height="26" as="geometry" />
        </mxCell>
        <mxCell id="oUhqUqcZ6ZFia1W_-bfi-60" value="on_close_window_button_pressed()" style="text;align=left;verticalAlign=top;spacingLeft=4;spacingRight=4;overflow=hidden;rotatable=0;points=[[0,0.5],[1,0.5]];portConstraint=eastwest;fillColor=none;whiteSpace=wrap;strokeColor=none;" parent="oUhqUqcZ6ZFia1W_-bfi-55" vertex="1">
          <mxGeometry y="166" width="210" height="26" as="geometry" />
        </mxCell>
        <mxCell id="oUhqUqcZ6ZFia1W_-bfi-61" value="get_ship(playerid)" style="text;align=left;verticalAlign=top;spacingLeft=4;spacingRight=4;overflow=hidden;rotatable=0;points=[[0,0.5],[1,0.5]];portConstraint=eastwest;" parent="oUhqUqcZ6ZFia1W_-bfi-55" vertex="1">
          <mxGeometry y="192" width="210" height="26" as="geometry" />
        </mxCell>
        <mxCell id="oUhqUqcZ6ZFia1W_-bfi-62" value="reset()" style="text;align=left;verticalAlign=top;spacingLeft=4;spacingRight=4;overflow=hidden;rotatable=0;points=[[0,0.5],[1,0.5]];portConstraint=eastwest;" parent="oUhqUqcZ6ZFia1W_-bfi-55" vertex="1">
          <mxGeometry y="218" width="210" height="26" as="geometry" />
        </mxCell>
        <mxCell id="oUhqUqcZ6ZFia1W_-bfi-63" value="UIWindow" style="swimlane;fontStyle=1;align=center;verticalAlign=top;childLayout=stackLayout;horizontal=1;startSize=26;horizontalStack=0;resizeParent=1;resizeLast=0;collapsible=1;marginBottom=0;rounded=0;shadow=0;strokeWidth=1;" parent="WIyWlLk6GJQsqaUBKTNV-1" vertex="1">
          <mxGeometry x="880" y="1950" width="210" height="60" as="geometry">
            <mxRectangle x="340" y="380" width="170" height="26" as="alternateBounds" />
          </mxGeometry>
        </mxCell>
        <mxCell id="oUhqUqcZ6ZFia1W_-bfi-64" value="klasa z biblioteki Pygame GUI" style="text;align=left;verticalAlign=top;spacingLeft=4;spacingRight=4;overflow=hidden;rotatable=0;points=[[0,0.5],[1,0.5]];portConstraint=eastwest;fontStyle=2" parent="oUhqUqcZ6ZFia1W_-bfi-63" vertex="1">
          <mxGeometry y="26" width="210" height="26" as="geometry" />
        </mxCell>
        <mxCell id="oUhqUqcZ6ZFia1W_-bfi-104" style="edgeStyle=orthogonalEdgeStyle;rounded=0;orthogonalLoop=1;jettySize=auto;html=1;startSize=6;endSize=12;strokeWidth=3;" parent="WIyWlLk6GJQsqaUBKTNV-1" source="oUhqUqcZ6ZFia1W_-bfi-73" target="oUhqUqcZ6ZFia1W_-bfi-8" edge="1">
          <mxGeometry relative="1" as="geometry">
            <Array as="points">
              <mxPoint x="698" y="1830" />
              <mxPoint x="490" y="1830" />
            </Array>
          </mxGeometry>
        </mxCell>
        <mxCell id="oUhqUqcZ6ZFia1W_-bfi-73" value="ShipChoiceScreen" style="swimlane;fontStyle=1;align=center;verticalAlign=top;childLayout=stackLayout;horizontal=1;startSize=26;horizontalStack=0;resizeParent=1;resizeLast=0;collapsible=1;marginBottom=0;rounded=0;shadow=0;strokeWidth=1;" parent="WIyWlLk6GJQsqaUBKTNV-1" vertex="1">
          <mxGeometry x="618.0000000000001" y="1860" width="160" height="380" as="geometry">
            <mxRectangle x="230" y="140" width="160" height="26" as="alternateBounds" />
          </mxGeometry>
        </mxCell>
        <mxCell id="oUhqUqcZ6ZFia1W_-bfi-74" value="background" style="text;align=left;verticalAlign=top;spacingLeft=4;spacingRight=4;overflow=hidden;rotatable=0;points=[[0,0.5],[1,0.5]];portConstraint=eastwest;" parent="oUhqUqcZ6ZFia1W_-bfi-73" vertex="1">
          <mxGeometry y="26" width="160" height="26" as="geometry" />
        </mxCell>
        <mxCell id="oUhqUqcZ6ZFia1W_-bfi-75" value="ship_gap" style="text;align=left;verticalAlign=top;spacingLeft=4;spacingRight=4;overflow=hidden;rotatable=0;points=[[0,0.5],[1,0.5]];portConstraint=eastwest;" parent="oUhqUqcZ6ZFia1W_-bfi-73" vertex="1">
          <mxGeometry y="52" width="160" height="26" as="geometry" />
        </mxCell>
        <mxCell id="oUhqUqcZ6ZFia1W_-bfi-81" value="ship_button_width" style="text;align=left;verticalAlign=top;spacingLeft=4;spacingRight=4;overflow=hidden;rotatable=0;points=[[0,0.5],[1,0.5]];portConstraint=eastwest;" parent="oUhqUqcZ6ZFia1W_-bfi-73" vertex="1">
          <mxGeometry y="78" width="160" height="26" as="geometry" />
        </mxCell>
        <mxCell id="oUhqUqcZ6ZFia1W_-bfi-82" value="ship_button_height" style="text;align=left;verticalAlign=top;spacingLeft=4;spacingRight=4;overflow=hidden;rotatable=0;points=[[0,0.5],[1,0.5]];portConstraint=eastwest;" parent="oUhqUqcZ6ZFia1W_-bfi-73" vertex="1">
          <mxGeometry y="104" width="160" height="26" as="geometry" />
        </mxCell>
        <mxCell id="oUhqUqcZ6ZFia1W_-bfi-84" value="player1_ship" style="text;align=left;verticalAlign=top;spacingLeft=4;spacingRight=4;overflow=hidden;rotatable=0;points=[[0,0.5],[1,0.5]];portConstraint=eastwest;" parent="oUhqUqcZ6ZFia1W_-bfi-73" vertex="1">
          <mxGeometry y="130" width="160" height="26" as="geometry" />
        </mxCell>
        <mxCell id="oUhqUqcZ6ZFia1W_-bfi-83" value="player2_ship" style="text;align=left;verticalAlign=top;spacingLeft=4;spacingRight=4;overflow=hidden;rotatable=0;points=[[0,0.5],[1,0.5]];portConstraint=eastwest;" parent="oUhqUqcZ6ZFia1W_-bfi-73" vertex="1">
          <mxGeometry y="156" width="160" height="26" as="geometry" />
        </mxCell>
        <mxCell id="oUhqUqcZ6ZFia1W_-bfi-85" value="play_button&#xa;" style="text;align=left;verticalAlign=top;spacingLeft=4;spacingRight=4;overflow=hidden;rotatable=0;points=[[0,0.5],[1,0.5]];portConstraint=eastwest;" parent="oUhqUqcZ6ZFia1W_-bfi-73" vertex="1">
          <mxGeometry y="182" width="160" height="26" as="geometry" />
        </mxCell>
        <mxCell id="oUhqUqcZ6ZFia1W_-bfi-86" value="back_button" style="text;align=left;verticalAlign=top;spacingLeft=4;spacingRight=4;overflow=hidden;rotatable=0;points=[[0,0.5],[1,0.5]];portConstraint=eastwest;" parent="oUhqUqcZ6ZFia1W_-bfi-73" vertex="1">
          <mxGeometry y="208" width="160" height="26" as="geometry" />
        </mxCell>
        <mxCell id="oUhqUqcZ6ZFia1W_-bfi-80" value="choice_window" style="text;align=left;verticalAlign=top;spacingLeft=4;spacingRight=4;overflow=hidden;rotatable=0;points=[[0,0.5],[1,0.5]];portConstraint=eastwest;" parent="oUhqUqcZ6ZFia1W_-bfi-73" vertex="1">
          <mxGeometry y="234" width="160" height="26" as="geometry" />
        </mxCell>
        <mxCell id="oUhqUqcZ6ZFia1W_-bfi-76" value="" style="line;strokeWidth=1;rotatable=0;dashed=0;labelPosition=right;align=left;verticalAlign=middle;spacingTop=0;spacingLeft=6;points=[];portConstraint=eastwest;" parent="oUhqUqcZ6ZFia1W_-bfi-73" vertex="1">
          <mxGeometry y="260" width="160" height="10" as="geometry" />
        </mxCell>
        <mxCell id="oUhqUqcZ6ZFia1W_-bfi-77" value="process_event(event)" style="text;align=left;verticalAlign=top;spacingLeft=4;spacingRight=4;overflow=hidden;rotatable=0;points=[[0,0.5],[1,0.5]];portConstraint=eastwest;fillColor=none;whiteSpace=wrap;strokeColor=none;" parent="oUhqUqcZ6ZFia1W_-bfi-73" vertex="1">
          <mxGeometry y="270" width="160" height="26" as="geometry" />
        </mxCell>
        <mxCell id="oUhqUqcZ6ZFia1W_-bfi-78" value="update(actions)" style="text;align=left;verticalAlign=top;spacingLeft=4;spacingRight=4;overflow=hidden;rotatable=0;points=[[0,0.5],[1,0.5]];portConstraint=eastwest;" parent="oUhqUqcZ6ZFia1W_-bfi-73" vertex="1">
          <mxGeometry y="296" width="160" height="26" as="geometry" />
        </mxCell>
        <mxCell id="oUhqUqcZ6ZFia1W_-bfi-79" value="render(display_surface)" style="text;align=left;verticalAlign=top;spacingLeft=4;spacingRight=4;overflow=hidden;rotatable=0;points=[[0,0.5],[1,0.5]];portConstraint=eastwest;" parent="oUhqUqcZ6ZFia1W_-bfi-73" vertex="1">
          <mxGeometry y="322" width="160" height="26" as="geometry" />
        </mxCell>
        <mxCell id="oUhqUqcZ6ZFia1W_-bfi-87" value="play()" style="text;align=left;verticalAlign=top;spacingLeft=4;spacingRight=4;overflow=hidden;rotatable=0;points=[[0,0.5],[1,0.5]];portConstraint=eastwest;" parent="oUhqUqcZ6ZFia1W_-bfi-73" vertex="1">
          <mxGeometry y="348" width="160" height="26" as="geometry" />
        </mxCell>
        <mxCell id="oUhqUqcZ6ZFia1W_-bfi-105" style="edgeStyle=orthogonalEdgeStyle;rounded=0;orthogonalLoop=1;jettySize=auto;html=1;startSize=6;endSize=12;exitX=0.5;exitY=0;exitDx=0;exitDy=0;strokeWidth=3;" parent="WIyWlLk6GJQsqaUBKTNV-1" source="oUhqUqcZ6ZFia1W_-bfi-89" target="oUhqUqcZ6ZFia1W_-bfi-8" edge="1">
          <mxGeometry relative="1" as="geometry">
            <Array as="points">
              <mxPoint x="718" y="1440" />
              <mxPoint x="610" y="1440" />
              <mxPoint x="610" y="1650" />
              <mxPoint x="490" y="1650" />
            </Array>
          </mxGeometry>
        </mxCell>
        <mxCell id="oUhqUqcZ6ZFia1W_-bfi-89" value="GameScreen" style="swimlane;fontStyle=1;align=center;verticalAlign=top;childLayout=stackLayout;horizontal=1;startSize=26;horizontalStack=0;resizeParent=1;resizeLast=0;collapsible=1;marginBottom=0;rounded=0;shadow=0;strokeWidth=1;" parent="WIyWlLk6GJQsqaUBKTNV-1" vertex="1">
          <mxGeometry x="638" y="1460" width="160" height="300" as="geometry">
            <mxRectangle x="230" y="140" width="160" height="26" as="alternateBounds" />
          </mxGeometry>
        </mxCell>
        <mxCell id="oUhqUqcZ6ZFia1W_-bfi-90" value="background" style="text;align=left;verticalAlign=top;spacingLeft=4;spacingRight=4;overflow=hidden;rotatable=0;points=[[0,0.5],[1,0.5]];portConstraint=eastwest;" parent="oUhqUqcZ6ZFia1W_-bfi-89" vertex="1">
          <mxGeometry y="26" width="160" height="26" as="geometry" />
        </mxCell>
        <mxCell id="oUhqUqcZ6ZFia1W_-bfi-96" value="ships" style="text;align=left;verticalAlign=top;spacingLeft=4;spacingRight=4;overflow=hidden;rotatable=0;points=[[0,0.5],[1,0.5]];portConstraint=eastwest;" parent="oUhqUqcZ6ZFia1W_-bfi-89" vertex="1">
          <mxGeometry y="52" width="160" height="26" as="geometry" />
        </mxCell>
        <mxCell id="oUhqUqcZ6ZFia1W_-bfi-99" value="asteroids" style="text;align=left;verticalAlign=top;spacingLeft=4;spacingRight=4;overflow=hidden;rotatable=0;points=[[0,0.5],[1,0.5]];portConstraint=eastwest;" parent="oUhqUqcZ6ZFia1W_-bfi-89" vertex="1">
          <mxGeometry y="78" width="160" height="26" as="geometry" />
        </mxCell>
        <mxCell id="oUhqUqcZ6ZFia1W_-bfi-101" value="bangs" style="text;align=left;verticalAlign=top;spacingLeft=4;spacingRight=4;overflow=hidden;rotatable=0;points=[[0,0.5],[1,0.5]];portConstraint=eastwest;" parent="oUhqUqcZ6ZFia1W_-bfi-89" vertex="1">
          <mxGeometry y="104" width="160" height="26" as="geometry" />
        </mxCell>
        <mxCell id="oUhqUqcZ6ZFia1W_-bfi-97" value="bullets" style="text;align=left;verticalAlign=top;spacingLeft=4;spacingRight=4;overflow=hidden;rotatable=0;points=[[0,0.5],[1,0.5]];portConstraint=eastwest;" parent="oUhqUqcZ6ZFia1W_-bfi-89" vertex="1">
          <mxGeometry y="130" width="160" height="26" as="geometry" />
        </mxCell>
        <mxCell id="oUhqUqcZ6ZFia1W_-bfi-100" value="last_asteroid" style="text;align=left;verticalAlign=top;spacingLeft=4;spacingRight=4;overflow=hidden;rotatable=0;points=[[0,0.5],[1,0.5]];portConstraint=eastwest;" parent="oUhqUqcZ6ZFia1W_-bfi-89" vertex="1">
          <mxGeometry y="156" width="160" height="26" as="geometry" />
        </mxCell>
        <mxCell id="oUhqUqcZ6ZFia1W_-bfi-92" value="" style="line;strokeWidth=1;rotatable=0;dashed=0;labelPosition=right;align=left;verticalAlign=middle;spacingTop=0;spacingLeft=6;points=[];portConstraint=eastwest;" parent="oUhqUqcZ6ZFia1W_-bfi-89" vertex="1">
          <mxGeometry y="182" width="160" height="10" as="geometry" />
        </mxCell>
        <mxCell id="oUhqUqcZ6ZFia1W_-bfi-93" value="process_event(event)" style="text;align=left;verticalAlign=top;spacingLeft=4;spacingRight=4;overflow=hidden;rotatable=0;points=[[0,0.5],[1,0.5]];portConstraint=eastwest;fillColor=none;whiteSpace=wrap;strokeColor=none;" parent="oUhqUqcZ6ZFia1W_-bfi-89" vertex="1">
          <mxGeometry y="192" width="160" height="26" as="geometry" />
        </mxCell>
        <mxCell id="oUhqUqcZ6ZFia1W_-bfi-94" value="update(actions)" style="text;align=left;verticalAlign=top;spacingLeft=4;spacingRight=4;overflow=hidden;rotatable=0;points=[[0,0.5],[1,0.5]];portConstraint=eastwest;" parent="oUhqUqcZ6ZFia1W_-bfi-89" vertex="1">
          <mxGeometry y="218" width="160" height="26" as="geometry" />
        </mxCell>
        <mxCell id="oUhqUqcZ6ZFia1W_-bfi-95" value="render(display_surface)" style="text;align=left;verticalAlign=top;spacingLeft=4;spacingRight=4;overflow=hidden;rotatable=0;points=[[0,0.5],[1,0.5]];portConstraint=eastwest;" parent="oUhqUqcZ6ZFia1W_-bfi-89" vertex="1">
          <mxGeometry y="244" width="160" height="26" as="geometry" />
        </mxCell>
        <mxCell id="oUhqUqcZ6ZFia1W_-bfi-102" value="game_over(loser_id)" style="text;align=left;verticalAlign=top;spacingLeft=4;spacingRight=4;overflow=hidden;rotatable=0;points=[[0,0.5],[1,0.5]];portConstraint=eastwest;fillColor=none;whiteSpace=wrap;strokeColor=none;" parent="oUhqUqcZ6ZFia1W_-bfi-89" vertex="1">
          <mxGeometry y="270" width="160" height="26" as="geometry" />
        </mxCell>
        <mxCell id="SjV1C5oEsbuHmI56tXHO-15" style="edgeStyle=orthogonalEdgeStyle;rounded=0;orthogonalLoop=1;jettySize=auto;html=1;strokeWidth=3;" edge="1" parent="WIyWlLk6GJQsqaUBKTNV-1" source="oUhqUqcZ6ZFia1W_-bfi-108" target="SjV1C5oEsbuHmI56tXHO-0">
          <mxGeometry relative="1" as="geometry" />
        </mxCell>
        <mxCell id="oUhqUqcZ6ZFia1W_-bfi-108" value="Spaceship" style="swimlane;fontStyle=1;align=center;verticalAlign=top;childLayout=stackLayout;horizontal=1;startSize=26;horizontalStack=0;resizeParent=1;resizeLast=0;collapsible=1;marginBottom=0;rounded=0;shadow=0;strokeWidth=1;" parent="WIyWlLk6GJQsqaUBKTNV-1" vertex="1">
          <mxGeometry x="1370" y="1630" width="240" height="350" as="geometry">
            <mxRectangle x="230" y="140" width="160" height="26" as="alternateBounds" />
          </mxGeometry>
        </mxCell>
        <mxCell id="oUhqUqcZ6ZFia1W_-bfi-109" value="original" style="text;align=left;verticalAlign=top;spacingLeft=4;spacingRight=4;overflow=hidden;rotatable=0;points=[[0,0.5],[1,0.5]];portConstraint=eastwest;" parent="oUhqUqcZ6ZFia1W_-bfi-108" vertex="1">
          <mxGeometry y="26" width="240" height="26" as="geometry" />
        </mxCell>
        <mxCell id="oUhqUqcZ6ZFia1W_-bfi-123" value="screen" style="text;align=left;verticalAlign=top;spacingLeft=4;spacingRight=4;overflow=hidden;rotatable=0;points=[[0,0.5],[1,0.5]];portConstraint=eastwest;" parent="oUhqUqcZ6ZFia1W_-bfi-108" vertex="1">
          <mxGeometry y="52" width="240" height="26" as="geometry" />
        </mxCell>
        <mxCell id="oUhqUqcZ6ZFia1W_-bfi-121" value="direction" style="text;align=left;verticalAlign=top;spacingLeft=4;spacingRight=4;overflow=hidden;rotatable=0;points=[[0,0.5],[1,0.5]];portConstraint=eastwest;" parent="oUhqUqcZ6ZFia1W_-bfi-108" vertex="1">
          <mxGeometry y="78" width="240" height="26" as="geometry" />
        </mxCell>
        <mxCell id="oUhqUqcZ6ZFia1W_-bfi-116" value="angle_speed" style="text;align=left;verticalAlign=top;spacingLeft=4;spacingRight=4;overflow=hidden;rotatable=0;points=[[0,0.5],[1,0.5]];portConstraint=eastwest;" parent="oUhqUqcZ6ZFia1W_-bfi-108" vertex="1">
          <mxGeometry y="104" width="240" height="26" as="geometry" />
        </mxCell>
        <mxCell id="oUhqUqcZ6ZFia1W_-bfi-119" value="angle" style="text;align=left;verticalAlign=top;spacingLeft=4;spacingRight=4;overflow=hidden;rotatable=0;points=[[0,0.5],[1,0.5]];portConstraint=eastwest;" parent="oUhqUqcZ6ZFia1W_-bfi-108" vertex="1">
          <mxGeometry y="130" width="240" height="26" as="geometry" />
        </mxCell>
        <mxCell id="oUhqUqcZ6ZFia1W_-bfi-118" value="friction" style="text;align=left;verticalAlign=top;spacingLeft=4;spacingRight=4;overflow=hidden;rotatable=0;points=[[0,0.5],[1,0.5]];portConstraint=eastwest;" parent="oUhqUqcZ6ZFia1W_-bfi-108" vertex="1">
          <mxGeometry y="156" width="240" height="26" as="geometry" />
        </mxCell>
        <mxCell id="oUhqUqcZ6ZFia1W_-bfi-117" value="max_inertia_len" style="text;align=left;verticalAlign=top;spacingLeft=4;spacingRight=4;overflow=hidden;rotatable=0;points=[[0,0.5],[1,0.5]];portConstraint=eastwest;" parent="oUhqUqcZ6ZFia1W_-bfi-108" vertex="1">
          <mxGeometry y="182" width="240" height="26" as="geometry" />
        </mxCell>
        <mxCell id="oUhqUqcZ6ZFia1W_-bfi-110" value="controls" style="text;align=left;verticalAlign=top;spacingLeft=4;spacingRight=4;overflow=hidden;rotatable=0;points=[[0,0.5],[1,0.5]];portConstraint=eastwest;" parent="oUhqUqcZ6ZFia1W_-bfi-108" vertex="1">
          <mxGeometry y="208" width="240" height="26" as="geometry" />
        </mxCell>
        <mxCell id="oUhqUqcZ6ZFia1W_-bfi-114" value="reload" style="text;align=left;verticalAlign=top;spacingLeft=4;spacingRight=4;overflow=hidden;rotatable=0;points=[[0,0.5],[1,0.5]];portConstraint=eastwest;" parent="oUhqUqcZ6ZFia1W_-bfi-108" vertex="1">
          <mxGeometry y="234" width="240" height="26" as="geometry" />
        </mxCell>
        <mxCell id="oUhqUqcZ6ZFia1W_-bfi-115" value="life" style="text;align=left;verticalAlign=top;spacingLeft=4;spacingRight=4;overflow=hidden;rotatable=0;points=[[0,0.5],[1,0.5]];portConstraint=eastwest;" parent="oUhqUqcZ6ZFia1W_-bfi-108" vertex="1">
          <mxGeometry y="260" width="240" height="26" as="geometry" />
        </mxCell>
        <mxCell id="oUhqUqcZ6ZFia1W_-bfi-131" value="playerid" style="text;align=left;verticalAlign=top;spacingLeft=4;spacingRight=4;overflow=hidden;rotatable=0;points=[[0,0.5],[1,0.5]];portConstraint=eastwest;" parent="oUhqUqcZ6ZFia1W_-bfi-108" vertex="1">
          <mxGeometry y="286" width="240" height="26" as="geometry" />
        </mxCell>
        <mxCell id="oUhqUqcZ6ZFia1W_-bfi-111" value="" style="line;strokeWidth=1;rotatable=0;dashed=0;labelPosition=right;align=left;verticalAlign=middle;spacingTop=0;spacingLeft=6;points=[];portConstraint=eastwest;" parent="oUhqUqcZ6ZFia1W_-bfi-108" vertex="1">
          <mxGeometry y="312" width="240" height="10" as="geometry" />
        </mxCell>
        <mxCell id="oUhqUqcZ6ZFia1W_-bfi-112" value="update(actions, bullets, asteroids, bangs)" style="text;align=left;verticalAlign=top;spacingLeft=4;spacingRight=4;overflow=hidden;rotatable=0;points=[[0,0.5],[1,0.5]];portConstraint=eastwest;" parent="oUhqUqcZ6ZFia1W_-bfi-108" vertex="1">
          <mxGeometry y="322" width="240" height="26" as="geometry" />
        </mxCell>
        <mxCell id="oUhqUqcZ6ZFia1W_-bfi-133" value="Sprite" style="swimlane;fontStyle=1;align=center;verticalAlign=top;childLayout=stackLayout;horizontal=1;startSize=26;horizontalStack=0;resizeParent=1;resizeLast=0;collapsible=1;marginBottom=0;rounded=0;shadow=0;strokeWidth=1;" parent="WIyWlLk6GJQsqaUBKTNV-1" vertex="1">
          <mxGeometry x="1070" y="1250" width="250" height="60" as="geometry">
            <mxRectangle x="340" y="380" width="170" height="26" as="alternateBounds" />
          </mxGeometry>
        </mxCell>
        <mxCell id="oUhqUqcZ6ZFia1W_-bfi-134" value="klasa z biblioteki Pygame" style="text;align=left;verticalAlign=top;spacingLeft=4;spacingRight=4;overflow=hidden;rotatable=0;points=[[0,0.5],[1,0.5]];portConstraint=eastwest;fontStyle=2" parent="oUhqUqcZ6ZFia1W_-bfi-133" vertex="1">
          <mxGeometry y="26" width="250" height="26" as="geometry" />
        </mxCell>
        <mxCell id="SjV1C5oEsbuHmI56tXHO-14" style="edgeStyle=orthogonalEdgeStyle;rounded=0;orthogonalLoop=1;jettySize=auto;html=1;strokeWidth=3;" edge="1" parent="WIyWlLk6GJQsqaUBKTNV-1" source="oUhqUqcZ6ZFia1W_-bfi-136" target="SjV1C5oEsbuHmI56tXHO-0">
          <mxGeometry relative="1" as="geometry" />
        </mxCell>
        <mxCell id="oUhqUqcZ6ZFia1W_-bfi-136" value="Asteroid" style="swimlane;fontStyle=1;align=center;verticalAlign=top;childLayout=stackLayout;horizontal=1;startSize=26;horizontalStack=0;resizeParent=1;resizeLast=0;collapsible=1;marginBottom=0;rounded=0;shadow=0;strokeWidth=1;" parent="WIyWlLk6GJQsqaUBKTNV-1" vertex="1">
          <mxGeometry x="1160" y="1630" width="160" height="90" as="geometry">
            <mxRectangle x="230" y="140" width="160" height="26" as="alternateBounds" />
          </mxGeometry>
        </mxCell>
        <mxCell id="oUhqUqcZ6ZFia1W_-bfi-137" value="screen_size" style="text;align=left;verticalAlign=top;spacingLeft=4;spacingRight=4;overflow=hidden;rotatable=0;points=[[0,0.5],[1,0.5]];portConstraint=eastwest;" parent="oUhqUqcZ6ZFia1W_-bfi-136" vertex="1">
          <mxGeometry y="26" width="160" height="26" as="geometry" />
        </mxCell>
        <mxCell id="oUhqUqcZ6ZFia1W_-bfi-139" value="" style="line;strokeWidth=1;rotatable=0;dashed=0;labelPosition=right;align=left;verticalAlign=middle;spacingTop=0;spacingLeft=6;points=[];portConstraint=eastwest;" parent="oUhqUqcZ6ZFia1W_-bfi-136" vertex="1">
          <mxGeometry y="52" width="160" height="10" as="geometry" />
        </mxCell>
        <mxCell id="oUhqUqcZ6ZFia1W_-bfi-140" value="update()" style="text;align=left;verticalAlign=top;spacingLeft=4;spacingRight=4;overflow=hidden;rotatable=0;points=[[0,0.5],[1,0.5]];portConstraint=eastwest;" parent="oUhqUqcZ6ZFia1W_-bfi-136" vertex="1">
          <mxGeometry y="62" width="160" height="26" as="geometry" />
        </mxCell>
        <mxCell id="SjV1C5oEsbuHmI56tXHO-13" style="edgeStyle=orthogonalEdgeStyle;rounded=0;orthogonalLoop=1;jettySize=auto;html=1;strokeWidth=3;startSize=12;endSize=12;" edge="1" parent="WIyWlLk6GJQsqaUBKTNV-1" source="oUhqUqcZ6ZFia1W_-bfi-143" target="SjV1C5oEsbuHmI56tXHO-0">
          <mxGeometry relative="1" as="geometry">
            <Array as="points">
              <mxPoint x="1240" y="1740" />
              <mxPoint x="1350" y="1740" />
            </Array>
          </mxGeometry>
        </mxCell>
        <mxCell id="oUhqUqcZ6ZFia1W_-bfi-143" value="Bullet" style="swimlane;fontStyle=1;align=center;verticalAlign=top;childLayout=stackLayout;horizontal=1;startSize=26;horizontalStack=0;resizeParent=1;resizeLast=0;collapsible=1;marginBottom=0;rounded=0;shadow=0;strokeWidth=1;" parent="WIyWlLk6GJQsqaUBKTNV-1" vertex="1">
          <mxGeometry x="1160" y="1790" width="160" height="88" as="geometry">
            <mxRectangle x="230" y="140" width="160" height="26" as="alternateBounds" />
          </mxGeometry>
        </mxCell>
        <mxCell id="oUhqUqcZ6ZFia1W_-bfi-144" value="screen" style="text;align=left;verticalAlign=top;spacingLeft=4;spacingRight=4;overflow=hidden;rotatable=0;points=[[0,0.5],[1,0.5]];portConstraint=eastwest;" parent="oUhqUqcZ6ZFia1W_-bfi-143" vertex="1">
          <mxGeometry y="26" width="160" height="26" as="geometry" />
        </mxCell>
        <mxCell id="oUhqUqcZ6ZFia1W_-bfi-148" value="" style="line;strokeWidth=1;rotatable=0;dashed=0;labelPosition=right;align=left;verticalAlign=middle;spacingTop=0;spacingLeft=6;points=[];portConstraint=eastwest;" parent="oUhqUqcZ6ZFia1W_-bfi-143" vertex="1">
          <mxGeometry y="52" width="160" height="10" as="geometry" />
        </mxCell>
        <mxCell id="oUhqUqcZ6ZFia1W_-bfi-149" value="update()" style="text;align=left;verticalAlign=top;spacingLeft=4;spacingRight=4;overflow=hidden;rotatable=0;points=[[0,0.5],[1,0.5]];portConstraint=eastwest;" parent="oUhqUqcZ6ZFia1W_-bfi-143" vertex="1">
          <mxGeometry y="62" width="160" height="26" as="geometry" />
        </mxCell>
        <mxCell id="oUhqUqcZ6ZFia1W_-bfi-154" style="edgeStyle=orthogonalEdgeStyle;rounded=0;orthogonalLoop=1;jettySize=auto;html=1;endArrow=none;endFill=0;startArrow=diamondThin;startFill=0;targetPerimeterSpacing=0;endSize=10;startSize=16;exitX=1;exitY=0.5;exitDx=0;exitDy=0;" parent="WIyWlLk6GJQsqaUBKTNV-1" source="oUhqUqcZ6ZFia1W_-bfi-80" target="oUhqUqcZ6ZFia1W_-bfi-55" edge="1">
          <mxGeometry relative="1" as="geometry">
            <Array as="points">
              <mxPoint x="830" y="2107" />
              <mxPoint x="830" y="2132" />
            </Array>
          </mxGeometry>
        </mxCell>
        <mxCell id="oUhqUqcZ6ZFia1W_-bfi-156" style="edgeStyle=orthogonalEdgeStyle;rounded=0;orthogonalLoop=1;jettySize=auto;html=1;endArrow=none;endFill=0;startArrow=diamondThin;startFill=0;startSize=16;" parent="WIyWlLk6GJQsqaUBKTNV-1" source="oUhqUqcZ6ZFia1W_-bfi-57" target="uUCPMOX3y8Ib5dSfwemb-0" edge="1">
          <mxGeometry relative="1" as="geometry">
            <Array as="points">
              <mxPoint x="1150" y="2125" />
              <mxPoint x="1150" y="2190" />
            </Array>
          </mxGeometry>
        </mxCell>
        <mxCell id="SjV1C5oEsbuHmI56tXHO-8" style="edgeStyle=orthogonalEdgeStyle;rounded=0;orthogonalLoop=1;jettySize=auto;html=1;exitX=0.25;exitY=0;exitDx=0;exitDy=0;entryX=1;entryY=0.5;entryDx=0;entryDy=0;endArrow=diamondThin;endFill=1;startSize=6;endSize=16;" edge="1" parent="WIyWlLk6GJQsqaUBKTNV-1" source="oUhqUqcZ6ZFia1W_-bfi-160" target="oUhqUqcZ6ZFia1W_-bfi-101">
          <mxGeometry relative="1" as="geometry" />
        </mxCell>
        <mxCell id="SjV1C5oEsbuHmI56tXHO-12" style="edgeStyle=orthogonalEdgeStyle;rounded=0;orthogonalLoop=1;jettySize=auto;html=1;entryX=0.5;entryY=1;entryDx=0;entryDy=0;strokeWidth=3;endSize=12;" edge="1" parent="WIyWlLk6GJQsqaUBKTNV-1" source="oUhqUqcZ6ZFia1W_-bfi-160" target="oUhqUqcZ6ZFia1W_-bfi-133">
          <mxGeometry relative="1" as="geometry" />
        </mxCell>
        <mxCell id="oUhqUqcZ6ZFia1W_-bfi-160" value="Bang" style="swimlane;fontStyle=1;align=center;verticalAlign=top;childLayout=stackLayout;horizontal=1;startSize=26;horizontalStack=0;resizeParent=1;resizeLast=0;collapsible=1;marginBottom=0;rounded=0;shadow=0;strokeWidth=1;" parent="WIyWlLk6GJQsqaUBKTNV-1" vertex="1">
          <mxGeometry x="950" y="1630" width="160" height="166" as="geometry">
            <mxRectangle x="230" y="140" width="160" height="26" as="alternateBounds" />
          </mxGeometry>
        </mxCell>
        <mxCell id="oUhqUqcZ6ZFia1W_-bfi-161" value="image" style="text;align=left;verticalAlign=top;spacingLeft=4;spacingRight=4;overflow=hidden;rotatable=0;points=[[0,0.5],[1,0.5]];portConstraint=eastwest;" parent="oUhqUqcZ6ZFia1W_-bfi-160" vertex="1">
          <mxGeometry y="26" width="160" height="26" as="geometry" />
        </mxCell>
        <mxCell id="oUhqUqcZ6ZFia1W_-bfi-162" value="images" style="text;align=left;verticalAlign=top;spacingLeft=4;spacingRight=4;overflow=hidden;rotatable=0;points=[[0,0.5],[1,0.5]];portConstraint=eastwest;" parent="oUhqUqcZ6ZFia1W_-bfi-160" vertex="1">
          <mxGeometry y="52" width="160" height="26" as="geometry" />
        </mxCell>
        <mxCell id="oUhqUqcZ6ZFia1W_-bfi-163" value="stime" style="text;align=left;verticalAlign=top;spacingLeft=4;spacingRight=4;overflow=hidden;rotatable=0;points=[[0,0.5],[1,0.5]];portConstraint=eastwest;" parent="oUhqUqcZ6ZFia1W_-bfi-160" vertex="1">
          <mxGeometry y="78" width="160" height="26" as="geometry" />
        </mxCell>
        <mxCell id="oUhqUqcZ6ZFia1W_-bfi-164" value="rect" style="text;align=left;verticalAlign=top;spacingLeft=4;spacingRight=4;overflow=hidden;rotatable=0;points=[[0,0.5],[1,0.5]];portConstraint=eastwest;" parent="oUhqUqcZ6ZFia1W_-bfi-160" vertex="1">
          <mxGeometry y="104" width="160" height="26" as="geometry" />
        </mxCell>
        <mxCell id="oUhqUqcZ6ZFia1W_-bfi-165" value="" style="line;strokeWidth=1;rotatable=0;dashed=0;labelPosition=right;align=left;verticalAlign=middle;spacingTop=0;spacingLeft=6;points=[];portConstraint=eastwest;" parent="oUhqUqcZ6ZFia1W_-bfi-160" vertex="1">
          <mxGeometry y="130" width="160" height="10" as="geometry" />
        </mxCell>
        <mxCell id="oUhqUqcZ6ZFia1W_-bfi-166" value="update()" style="text;align=left;verticalAlign=top;spacingLeft=4;spacingRight=4;overflow=hidden;rotatable=0;points=[[0,0.5],[1,0.5]];portConstraint=eastwest;" parent="oUhqUqcZ6ZFia1W_-bfi-160" vertex="1">
          <mxGeometry y="140" width="160" height="26" as="geometry" />
        </mxCell>
        <mxCell id="oUhqUqcZ6ZFia1W_-bfi-169" style="edgeStyle=orthogonalEdgeStyle;rounded=0;orthogonalLoop=1;jettySize=auto;html=1;entryX=0.25;entryY=0;entryDx=0;entryDy=0;endArrow=none;endFill=0;startArrow=diamondThin;startFill=1;startSize=16;movable=1;resizable=1;rotatable=1;deletable=1;editable=1;locked=0;connectable=1;" parent="WIyWlLk6GJQsqaUBKTNV-1" source="oUhqUqcZ6ZFia1W_-bfi-96" target="oUhqUqcZ6ZFia1W_-bfi-108" edge="1">
          <mxGeometry relative="1" as="geometry">
            <Array as="points" />
          </mxGeometry>
        </mxCell>
        <mxCell id="oUhqUqcZ6ZFia1W_-bfi-170" style="edgeStyle=orthogonalEdgeStyle;rounded=0;orthogonalLoop=1;jettySize=auto;html=1;entryX=0.25;entryY=0;entryDx=0;entryDy=0;endArrow=none;endFill=0;startArrow=diamondThin;startFill=1;startSize=16;" parent="WIyWlLk6GJQsqaUBKTNV-1" source="oUhqUqcZ6ZFia1W_-bfi-99" target="oUhqUqcZ6ZFia1W_-bfi-136" edge="1">
          <mxGeometry relative="1" as="geometry">
            <Array as="points">
              <mxPoint x="1178" y="1550" />
            </Array>
          </mxGeometry>
        </mxCell>
        <mxCell id="oUhqUqcZ6ZFia1W_-bfi-181" value="&lt;h1&gt;Star Fighters - diagram klas&lt;/h1&gt;&lt;p&gt;&lt;br&gt;&lt;/p&gt;" style="text;html=1;strokeColor=none;fillColor=none;spacing=5;spacingTop=-20;whiteSpace=wrap;overflow=hidden;rounded=0;align=center;" parent="WIyWlLk6GJQsqaUBKTNV-1" vertex="1">
          <mxGeometry x="618" y="1193" width="420" height="40" as="geometry" />
        </mxCell>
        <mxCell id="oUhqUqcZ6ZFia1W_-bfi-182" value="13.06.2023" style="text;html=1;strokeColor=none;fillColor=none;align=center;verticalAlign=middle;whiteSpace=wrap;rounded=0;" parent="WIyWlLk6GJQsqaUBKTNV-1" vertex="1">
          <mxGeometry x="1550" y="1193" width="60" height="30" as="geometry" />
        </mxCell>
        <mxCell id="oUhqUqcZ6ZFia1W_-bfi-183" value="Jakub Dubiel, Hubert Dyczkowski" style="text;html=1;strokeColor=none;fillColor=none;align=left;verticalAlign=middle;whiteSpace=wrap;rounded=0;" parent="WIyWlLk6GJQsqaUBKTNV-1" vertex="1">
          <mxGeometry x="30" y="1193" width="340" height="30" as="geometry" />
        </mxCell>
        <mxCell id="oUhqUqcZ6ZFia1W_-bfi-184" value="&lt;font style=&quot;font-size: 14px;&quot;&gt;Programowanie obiektowe - projekt końcowy&lt;/font&gt;" style="text;html=1;strokeColor=none;fillColor=none;align=center;verticalAlign=middle;whiteSpace=wrap;rounded=0;fontSize=16;" parent="WIyWlLk6GJQsqaUBKTNV-1" vertex="1">
          <mxGeometry x="668" y="1224" width="320" height="30" as="geometry" />
        </mxCell>
        <mxCell id="SjV1C5oEsbuHmI56tXHO-10" style="edgeStyle=orthogonalEdgeStyle;rounded=0;orthogonalLoop=1;jettySize=auto;html=1;entryX=0.5;entryY=1;entryDx=0;entryDy=0;strokeWidth=3;" edge="1" parent="WIyWlLk6GJQsqaUBKTNV-1" source="SjV1C5oEsbuHmI56tXHO-0" target="oUhqUqcZ6ZFia1W_-bfi-133">
          <mxGeometry relative="1" as="geometry">
            <Array as="points">
              <mxPoint x="1350" y="1340" />
              <mxPoint x="1195" y="1340" />
            </Array>
          </mxGeometry>
        </mxCell>
        <mxCell id="SjV1C5oEsbuHmI56tXHO-0" value="FlyingObject" style="swimlane;fontStyle=1;align=center;verticalAlign=top;childLayout=stackLayout;horizontal=1;startSize=26;horizontalStack=0;resizeParent=1;resizeLast=0;collapsible=1;marginBottom=0;rounded=0;shadow=0;strokeWidth=1;" vertex="1" parent="WIyWlLk6GJQsqaUBKTNV-1">
          <mxGeometry x="1270" y="1360" width="160" height="130" as="geometry">
            <mxRectangle x="230" y="140" width="160" height="26" as="alternateBounds" />
          </mxGeometry>
        </mxCell>
        <mxCell id="SjV1C5oEsbuHmI56tXHO-1" value="image" style="text;align=left;verticalAlign=top;spacingLeft=4;spacingRight=4;overflow=hidden;rotatable=0;points=[[0,0.5],[1,0.5]];portConstraint=eastwest;" vertex="1" parent="SjV1C5oEsbuHmI56tXHO-0">
          <mxGeometry y="26" width="160" height="26" as="geometry" />
        </mxCell>
        <mxCell id="SjV1C5oEsbuHmI56tXHO-5" value="position" style="text;align=left;verticalAlign=top;spacingLeft=4;spacingRight=4;overflow=hidden;rotatable=0;points=[[0,0.5],[1,0.5]];portConstraint=eastwest;" vertex="1" parent="SjV1C5oEsbuHmI56tXHO-0">
          <mxGeometry y="52" width="160" height="26" as="geometry" />
        </mxCell>
        <mxCell id="SjV1C5oEsbuHmI56tXHO-2" value="inertia" style="text;align=left;verticalAlign=top;spacingLeft=4;spacingRight=4;overflow=hidden;rotatable=0;points=[[0,0.5],[1,0.5]];portConstraint=eastwest;" vertex="1" parent="SjV1C5oEsbuHmI56tXHO-0">
          <mxGeometry y="78" width="160" height="26" as="geometry" />
        </mxCell>
        <mxCell id="SjV1C5oEsbuHmI56tXHO-6" value="rect" style="text;align=left;verticalAlign=top;spacingLeft=4;spacingRight=4;overflow=hidden;rotatable=0;points=[[0,0.5],[1,0.5]];portConstraint=eastwest;" vertex="1" parent="SjV1C5oEsbuHmI56tXHO-0">
          <mxGeometry y="104" width="160" height="26" as="geometry" />
        </mxCell>
        <mxCell id="SjV1C5oEsbuHmI56tXHO-9" style="edgeStyle=orthogonalEdgeStyle;rounded=0;orthogonalLoop=1;jettySize=auto;html=1;entryX=0;entryY=0.25;entryDx=0;entryDy=0;startArrow=diamondThin;startFill=1;endArrow=none;endFill=0;endSize=13;startSize=16;" edge="1" parent="WIyWlLk6GJQsqaUBKTNV-1" source="oUhqUqcZ6ZFia1W_-bfi-97" target="oUhqUqcZ6ZFia1W_-bfi-143">
          <mxGeometry relative="1" as="geometry">
            <Array as="points">
              <mxPoint x="890" y="1603" />
              <mxPoint x="890" y="1812" />
            </Array>
          </mxGeometry>
        </mxCell>
        <mxCell id="SjV1C5oEsbuHmI56tXHO-49" value="" style="endArrow=none;html=1;rounded=0;" edge="1" parent="WIyWlLk6GJQsqaUBKTNV-1">
          <mxGeometry width="50" height="50" relative="1" as="geometry">
            <mxPoint x="330.07" y="1300" as="sourcePoint" />
            <mxPoint x="410.07" y="1300" as="targetPoint" />
          </mxGeometry>
        </mxCell>
      </root>
    </mxGraphModel>
  </diagram>
</mxfile>
